/* XPM */
static char *_4698b9f2fe041d5a586bff98649d9e2in8kKhlT1nQS4Xsf[] = {
/* columns rows colors chars-per-pixel */
"64 64 185 2 ",
"   c #010101",
".  c #0B0B0B",
"X  c #141414",
"o  c #1A1A1A",
"O  c #242424",
"+  c #2B2B2B",
"@  c #343434",
"#  c #3C3C3C",
"$  c #444444",
"%  c #4B4B4B",
"&  c #505050",
"*  c #5C5C5C",
"=  c #646464",
"-  c #6D6D6D",
";  c #747474",
":  c #7C7C7C",
">  c #FB0607",
",  c #F90009",
"<  c #EA0F17",
"1  c #E71B14",
"2  c #E51F1C",
"3  c #EF1F1F",
"4  c #F11E15",
"5  c #F2171B",
"6  c #F41818",
"7  c #DF2516",
"8  c #F1240D",
"9  c #E62615",
"0  c #EC2515",
"q  c #EB2D14",
"w  c #E5271D",
"e  c #EB261E",
"r  c #E42C1C",
"t  c #EB2B1D",
"y  c #F22915",
"u  c #F2261D",
"i  c #F32B1D",
"p  c #FB291D",
"a  c #E4321C",
"s  c #EB341C",
"d  c #F2301A",
"f  c #EB1F20",
"g  c #EA1323",
"h  c #F41D25",
"j  c #FF1F29",
"k  c #FC1C24",
"l  c #DF2926",
"z  c #DE3727",
"x  c #DF3130",
"c  c #E52623",
"v  c #EB2624",
"b  c #E42C23",
"n  c #EE2B25",
"m  c #EC252B",
"M  c #E62D2C",
"N  c #EC2C2A",
"B  c #F32523",
"V  c #FC2623",
"C  c #F32B24",
"Z  c #FA2A24",
"A  c #F4252B",
"S  c #F9242A",
"D  c #F32C2B",
"F  c #FA2C2B",
"G  c #E43123",
"H  c #EB3225",
"J  c #E5342C",
"K  c #EB322B",
"L  c #E4382A",
"P  c #F23125",
"I  c #F93026",
"U  c #F3312C",
"Y  c #FA302C",
"T  c #F3382F",
"R  c #FA382E",
"E  c #E62631",
"W  c #EE2536",
"Q  c #E52C32",
"!  c #ED2B33",
"~  c #F22431",
"^  c #F32C31",
"/  c #FD2B31",
"(  c #F4293D",
")  c #FC2336",
"_  c #E33532",
"`  c #EC3C3C",
"'  c #F33331",
"]  c #F33934",
"[  c #F53D3F",
"{  c #E83644",
"}  c #E14641",
"|  c #ED4343",
" . c #F5444A",
".. c #F05246",
"X. c #F1544F",
"o. c #E64B51",
"O. c #F44E5C",
"+. c #ED5355",
"@. c #FB5758",
"#. c #D96A5F",
"$. c #F25E6C",
"%. c #F46567",
"&. c #F36468",
"*. c #EA796B",
"=. c #F37B7A",
"-. c #EF8E7D",
";. c #E9957D",
":. c #8B8B8B",
">. c #848484",
",. c #949494",
"<. c gray61",
"1. c #A3A3A3",
"2. c #ABABAB",
"3. c #B2B2B2",
"4. c #BABABA",
"5. c #F59690",
"6. c #F39A96",
"7. c #F69DA1",
"8. c #F1AFA3",
"9. c #FCB3B6",
"0. c #F1BFB4",
"q. c #EDAE8F",
"w. c #FFC0A3",
"e. c #F6E8B9",
"r. c #C2C2C2",
"t. c #CCCCCC",
"y. c #D3D3D3",
"u. c #DCDCDC",
"i. c #EDC4CA",
"p. c #FAD0C4",
"a. c #FADCC4",
"s. c #FFCFD5",
"d. c #FED6D4",
"f. c #F9DBD1",
"g. c #F4D7D9",
"h. c #FDFCDE",
"j. c #E5E5E5",
"k. c #ECECEC",
"l. c #FEEEEE",
"z. c #F2F7E0",
"x. c #FFF5E6",
"c. c #FFF4ED",
"v. c #F5FFEF",
"b. c #FEFEED",
"n. c #E6FFF3",
"m. c #EFFFF0",
"M. c #ECFEFB",
"N. c #F4F4F4",
"B. c #FFF5F4",
"V. c #F5FCF4",
"C. c #FCFDF5",
"Z. c #FFF6FE",
"A. c #F5FFFC",
"S. c #FBFBFB",
"D. c gray98",
"F. c #F9F9F9",
"G. c #FFF9F9",
"H. c #FEFAFA",
"J. c #FBFFFB",
"K. c #F9FFFA",
"L. c #FFFFFA",
"P. c #FEFEF9",
"I. c #FFF9FF",
"U. c #FFFAFF",
"Y. c #FFFBFF",
"T. c #FEFBFF",
"R. c #FEF9FD",
"E. c #F9FFFF",
"W. c #FBFFFF",
"Q. c #FAFEFF",
"!. c #F9FFFD",
"~. c gray99",
"^. c #FDFDFD",
"/. c #FFFDFD",
"(. c #FDFDFF",
"). c #FFFDFF",
"_. c #FFFDFE",
"`. c #FCFFFF",
"'. c #FEFEFE",
"]. c #FEFEFF",
"[. c #FFFEFF",
"{. c white",
"}. c #FEFFFF",
"|. c #FFFFFD",
" X c #FEFEFE",
/* pixels */
"{.{.{.{.{.{.{.{.{.{.{.{.{.{.{.{.{.{.{.{.{.{.{.{.H.A.U.V.{.E.C.E.U.H.K.{.E.{.U.V.H.C.V.U.A.{.H.{.b.H.{.E.E.H.G.{.V.U.H.{.U.G.{.{.",
"{.{.D.{.{.{.F.{.{.{.{.{.{.{.D.{.{.{.{.{.D.{.F.{.V.{.Z.E.b.Z.{.q.7 4 8 0 p.E.V.{.E.U.A.b.V.H.G.f.&.< > ..0.{.{.{.U.{.A.H.n.{.K.{.",
"D.{.{.{.{.{.{.{.{.{.{.F.{.{.{.{.D.{.{.{.{.{.{.{.{.H.K.C.H.@.! N D B ~ ( i C c.H.{.{.{.V.U.B.1 N H n N r p u #.b.{.U.A.C.C.A.A.K.",
"{.{.{.{.#   + % 2.k.{.{.j.,.$ O   * {.{.D.{.{.{.A.G.{.l.B m n n q ] m a n m A C.{.U.{.{.9.C n J v Z Z C n ^ F 2 z.{.{.G.H.G.{.G.",
"{.D.{.{.                            {.{.{.{.{.D.C.{.Z.b r J N C N B q C H n ! i H.K.H.*.a m ' B Z C n A ! M N B N b.E.{.{.B.E.{.",
"{.{.{.{.                            D.{.{.{.D.{.G.U.A t ' N i m B G ^ N v ^ e N 9 U.d.F n I n S N c U N v C Z C u g H.{.{.A.A.{.",
"{.{.{.{.:.* u.4.          X y.t.% t.{.{.{.{.{.{.A.%.n n S t Q Z Z D i t F P U n D ;.W Z t x n H P B D n t P K b C C 5.C.Z.E.C.{.",
"{.{.D.{.{.{.{.{.k.        D.{.{.{.D.{.D.{.{.{.{.H.B t N B t d m M G Z n n K k N C A H e N ^ n i v U t C U c n C A t b C.Z.H.E.{.",
"{.{.{.{.{.{.{.{.{.        {.{.{.{.G.{.{.{.{.{.{.w.Q j H n Z C n n n n n n n n n n n n n n n n n n n n n n n n n n S M e.U.{.{.K.",
"{.{.{.{.{.{.{.{.{.      o {.{.{.{.{.{.E.{.{.{.{.} v D G n Z n b n n n n n n n n n n n n n n n n n n n n n n n n H b D ` E.Z.H.{.",
"{.{.{.{.{.{.{.{.{.      @ {.{.{.{.{.{.{.{.{.{.{.h F K b n v n K n n n n n n n n n n n n n n n n n n n n n n n n n v Z h H.{.F.U.",
"{.{.{.{.{.{.{.{.{.      + {.D.{.{.{.{.{.{.E.{.H.Z H w F D n B n n n n n n n n n n n n n n n n n n n n n n n n n C B Z L C.A.H.U.",
"{.{.{.{.{.{.{.{.{.      O {.{.{.{.E.E.{.{.E.H.G.t b B F c D Z n n n n n n n n n n n n n n n n n n n n n n n n n n D t b V.{.{.A.",
"{.{.{.{.{.{.{.{.{.      O {.{.{.{.E.E.U.{.E.H.g.C P C n b D B H n n n n n n n n n n n n n n n n n n n n n n n n n A C D H.E.{.{.",
"{.{.{.{.{.{.{.{.{.      + {.{.{.U.E.E.{.{.E.G.i.B v n n H C e H n n n n n n n n n n n n n n n n n n n n n n n n P 3 U J G.M.{.U.",
"{.{.{.{.{.{.{.{.{.      + {.{.{.U.E.E.{.D.K.H.s.M N n C t n P B n n n n n n n n n n n n n n n n n n n n n n n n t Z b b H.{.H.A.",
"{.{.{.{.{.{.{.{.{.      + {.{.{.{.{.{.{.{.{.{.{.S d A N i H C A n n n n n n n n n n n n n n n n n n n n n n n n u _ y A {.V.H.E.",
"{.{.{.{.{.{.{.{.{.      + {.{.{.{.{.{.{.{.{.{.{.a J b B C n n N n n n n n n n n n n n n n n n n n n n n n n n n u b ^ H (.{.{.{.",
"{.{.{.{.{.{.{.{.{.      + {.{.{.{.{.{.{.{.{.{.{.p Q C i v Z N C n n n n n n n n n n n n n n n n n n n n n n n n F a ) 8 U.A.Z.K.",
"{.{.{.{.{.{.{.{.{.      + {.{.{.{.{.{.{.{.{.{.{.] Q p C N P n B n n n n n n n n n n n n n n n n n n n n n n n n v n N T {.{.{.F.",
"{.{.{.{.{.{.{.{.{.      + {.{.{.{.{.{.{.{.{.{.{.8.R n N U e t D n n n n n n n n n n n n n n n n n n n n n n n n M K 9 a.{.K.{.U.",
"{.{.{.{.{.{.{.{.{.      + {.{.{.{.{.{.{.{.{.{.{.K.6 H M c B t K n n n n n n n n n n n n n n n n n n n n n n n n D B V K.A.H.V.U.",
"{.{.{.{.{.{.{.{.{.      + {.{.{.{.{.{.{.{.{.{.{.U.o.n K v F n v n n n n n n n n n n n n n n n n n n n n n n n n u Y { {.{.K.H.E.",
"{.{.{.{.{.{.{.{.{.      + {.{.{.{.{.{.{.{.{.{.{.{.c.i t / e K n n n n n n n n n n n n n n n n n n n n n n n n n t G C.{.{.{.H.{.",
"{.{.{.{.{.{.{.{.{.      + {.{.{.{.{.{.{.{.{.{.{.{.C.| M C n A H n n n n n n n n n n n n n n n n B b n n H u N A n O.C.K.M.E.Z.{.",
"{.{.{.{.{.{.{.{.{.      + {.{.{.{.{.{.{.{.{.{.{.E.V.b.C l n U B n n n n n n n n n n n n n n n n n F v C H K w a m b.U.U.A.U.{.A.",
"{.{.{.{.{.{.{.{.{.      + {.{.{.{.{.{.{.{.{.{.{.{.E.{.$.n K w b n n n n n n n n n n n n n n n n n c A B n F V q 7.K.E.{.U.A.G.{.",
"{.{.{.{.{.{.{.{.{.      + {.D.{.{.{.{.{.{.{.{.{.U.{.F.A.h H n Z n n n n n n n n n n n n n n n n D n D K v t D A V.U.{.U.{.K.{.{.",
"{.{.{.{.{.{.{.{.{.      + {.{.{.{.{.{.{.{.{.{.{.A.U.{.E.x.y w B n n n n n n n n n n n n n n n n w H n m B P E V.{.{.A.U.K.H.{.(.",
"{.{.{.{.{.{.{.{.{.      + {.{.{.{.{.{.{.{.{.{.{.H.A.{.V.U.=.s m n n n n n n n n n n n n n n n n N i i / z v h.R.{.B.K.{.Z.C.H.{.",
"{.{.{.{.{.{.{.{.{.      O {.{.{.{.{.{.{.{.{.{.{.{.{.V.{.H.U.[ ^ n n n n n n n n n n n n n n n n N Z B e N 6.H.{.{.H.G.A.{.V.H.{.",
"{.{.{.{.{.{.{.{.{.      . {.{.{.{.{.{.{.{.{.{.{.{.H.{.A.{.E.U.r n n n n n n n n n n n n n n n n n D c P +.G.E.C.{.A.{.{.{.H.H.{.",
"{.{.{.{.{.D.{.{.{.        {.{.{.{.{.{.{.{.{.{.{.{.{.{.{.{.{.{.{.u Q B C n n n v s A B y K ! n H N n F J G.A.E.U.{.{.{.{.{.{.{.{.",
"{.{.{.{.{.{.{.{.*         4.{.{.{.D.{.{.{.{.{.{.{.{.{.{.{.{.{.{.C.5 J t C P v K G W _ i H 3 n Z C n 0 U.{.K.F.E.{.{.{.{.{.{.{.{.",
"{.{.{.{.                            {.{.{.{.{.{.{.{.{.{.{.{.{.{.K.B., n a t V B n F C B m Y H A b > {.V.E.E.{.K.{.{.{.{.{.{.{.{.",
"{.{.{.{.                    .       {.F.{.D.D.{.{.{.{.{.{.{.{.{.A.C.H. .n D b H C n B n N A w C 2 {.C.{.C.U.{.G.{.{.{.{.{.{.{.{.",
"{.{.{.{.    .     o + @ o           {.{.{.{.{.{.{.{.{.{.{.{.{.{.A.{.V.A.9.D A u N C n D Z r F X.G.{.U.v.E.E.G.E.{.{.{.{.{.{.{.{.",
"{.D.{.{.F.r.u.{.{.D.{.{.D.{.{.j.r.{.{.{.F.{.{.D.{.{.{.{.{.{.{.{.U.{.{.{.A.l.v A V n b t r f 9.E.M.H.{.U.E.C.A.H.{.{.{.{.{.{.{.{.",
"{.{.{.{.D.{.{.{.{.{.{.D.{.{.D.{.{.{.D.{.{.{.{.{.{.{.{.{.{.{.{.{.A.H.U.E.{.H.E.-.G c / C A G.E.(.U.{.G.{.G.G.U.H.{.{.{.{.{.{.{.{.",
"{.D.{.{.{.{.{.D.{.{.{.{.{.{.{.{.{.{.{.D.{.{.{.{.{.{.{.{.{.{.{.{.E.{.{.E.{.U.H.{.Z.b 0 d.E.H.m.H.H.H.K.H.{.H.H.{.{.{.{.{.{.{.{.{.",
"{.{.D.{.{.{.{.{.{.{.{.{.{.{.{.{.{.{.{.{.{.{.D.{.{.{.{.{.{.D.{.{.{.{.{.{.{.{.{.{.{.{.{.{.{.{.{.{.{.{.{.D.{.D.{.{.{.{.D.{.{.{.{.{.",
"{.{.{.{.D.{.{.{.{.{.{.{.{.{.{.{.{.{.D.{.{.{.{.{.{.{.D.{.{.{.{.{.{.{.D.{.{.{.{.{.{.{.D.{.D.{.{.{.{.{.{.{.F.{.D.{.{.{.{.{.{.D.{.{.",
"{.{.{.{.{.{.{.{.{.{.{.{.D.{.D.D.{.{.{.{.{.{.D.{.{.{.{.{.{.{.{.{.{.{.{.{.{.D.{.{.{.D.{.{.{.{.{.{.{.{.{.{.{.{.{.{.{.{.{.F.{.{.{.{.",
"{.D.{.{.{.{.{.D.D.{.D.{.{.D.{.{.{.{.{.D.{.{.{.{.{.{.{.{.{.{.{.{.{.{.{.{.{.{.D.{.{.{.D.{.{.{.{.{.{.{.{.{.D.{.{.{.{.{.D.{.{.{.{.{.",
"{.{.{.{.{.{.{.{.{.D.{.{.{.{.{.{.D.{.{.{.{.D.D.{.{.{.{.D.{.{.{.{.D.{.{.{.{.{.{.{.D.{.{.D.{.{.{.{.{.{.{.{.{.{.D.{.{.{.{.{.{.D.D.{.",
"{.u.k.{.{.D.j.u.u.j.{.{.{.{.{.{.{.D.{.y.k.{.{.{.{.{.{.{.F.j.k.{.D.N.j.u.u.j.D.{.{.{.{.{.j.k.D.{.{.j.j.{.D.{.{.N.*     : {.F.y.{.",
"3.                    = {.D.{.{.{.{.*     {.{.{.{.{.{.{.    .                 <.D.{.{.{.              D.{.{.1.            X   {.",
"{.t.y.    * t.u.u.1.    * {.{.{.{.{.  .   {.{.{.{.{.{.{.{.j.<.    3.N.{.{.2.    k.{.D.{.t.j.    o j.t.{.{.N.    j.{.{.N.      D.",
"{.{.{..   {.{.{.{.F.{.    {.D.{.{.{.  t.  @ D.{.{.{.{.{.{.{.{.  . {.{.{.{.{.N.  X {.{.{.{.{.,.  j.{.{.{.{.X   k.{.{.{.{.{.  X {.",
"{.{.{.X   {.{.{.{.{.{.&   N.{.D.D.-   D.    {.{.{.{.{.{.{.{.{.  X {.{.{.{.{.{.    {.{.{.{.{.2.  k.{.{.F.{.    {.D.{.{.{.{.    {.",
"{.D.{..   {.{.{.{.{.{.3.  y.{.{.{.    {.=   F.{.{.{.{.{.{.{.{.  o {.{.{.{.{.{.    {.{.{.D.{.2.  N.{.{.{.{.    {.{.{.{.{.{..   {.",
"{.{.D.X   D.{.{.{.{.{.=   N.{.{.{.  : {.u.  2.{.{.{.{.{.{.{.{.  . {.{.{.{.{.{.  o F.{.D.{.D.2.  k.{.D.{.{.    t.{.{.D.{.{.    {.",
"{.{.D..   {.{.{.{.{.{.    {.{.{.r.  k.{.{.    {.{.{.{.{.{.{.{.  o {.{.D.{.{.o   {.{.{.{.{.{.2.  N.{.{.{.{.t.    ; {.{.{.{.1.r.{.",
"{.{.{.X   j.{.D.{.r.    = {.F.{..   {.{.{.  . {.{.{.{.{.{.{.{.    . . X     . N.{.{.{.{.{.{.2.  k.{.{.{.{.{.o         o 2.{.D.{.",
"{.{.{..               : {.{.{.D.    {.{.D.,.  u.{.{.{.{.{.{.{.                {.{.{.{.{.{.{.1.  N.{.{.D.{.D.{.D.O           {.{.",
"{.{.D..   4.r.r.t.D.{.{.{.D.{.j.              X {.{.{.{.{.{.{.    {.{.{.{.u.  % {.{.N.{.{.{.2.  k.{.{.{.{.  {.{.{.{.{.u.X     {.",
"{.{.{..   D.{.{.{.{.{.{.{.{.{.    . X o X X     {.{.{.{.{.{.{.  X {.D.{.{.{.    {.{.  j.D.{.2.  N.{.{.{.F.  k.{.{.{.{.{.{..   k.",
"{.{.{..   {.D.{.{.{.{.{.{.{.D.    {.{.{.D.{..   j.{.{.{.{.{.{.  X D.{.{.{.{.    {.{.  u.{.{.2.  k.{.{.D.{.  k.{.{.{.D.{.D.j.  2.",
"{.{.{..   D.{.{.{.{.{.D.{.{.N.  <.{.{.{.{.{.D.  = {.D.{.{.{.{.  X {.{.{.{.{.    {.{.  j.D.{.2.  N.{.{.{.{.  4.{.{.{.{.{.{.{.  3.",
"{.{.D.X   {.{.{.D.{.{.{.{.{.=   {.{.{.{.{.{.{.    D.{.{.F.{.{.  . {.D.{.{.{.    {.{.  j.{.{.2.  N.D.{.D.{.    {.{.{.{.{.D.:.  k.",
"{.D.{.    D.{.{.{.{.D.{.{.{.    {.{.{.{.{.{.{.X   N.{.{.{.{.{.    {.D.{.{.{.    {.k.  F.{.D.$   t.{.{.{.{.    r.{.{.D.{.{.    {.",
"j.  +       O o {.{.{.{.            + {.t.  O       X . @ o           y.{.{.-         {.  @       @   {.{.  @   @ 3.r.:     u.D.",
"u.    = = %   o {.D.{.{.    $ * @   o {.t.    # = +     +   O ; = .   u.{.{.{.#     N.{.    = ; *     {.D.  N.>.          u.{.{.",
"{.D.{.{.{.{.{.{.{.{.{.{.{.{.{.{.{.{.{.{.D.{.{.{.{.{.{.{.D.{.{.{.{.D.{.{.{.{.{.{.{.{.{.{.{.{.D.{.D.{.{.{.{.j.D.{.{.j.j.N.{.{.{.{."
};
