/* XPM */
static char *_938d913851341b6f677ce28d3f9c496ZtBEMVCTsZ8EdQqo[] = {
/* columns rows colors chars-per-pixel */
"64 64 139 2 ",
"   c #504E43",
".  c #545247",
"X  c #5D564B",
"o  c #5F584C",
"O  c #625B4F",
"+  c #625B52",
"@  c #656256",
"#  c #6A6356",
"$  c #67655A",
"%  c #6A6459",
"&  c #6E6A5D",
"*  c #716B5D",
"=  c #6F6D60",
"-  c #736E62",
";  c #747163",
":  c #797165",
">  c #777568",
",  c #787569",
"<  c #7D7A6D",
"1  c #7F7C71",
"2  c #817B6E",
"3  c #847E73",
"4  c #848275",
"5  c #898476",
"6  c #868579",
"7  c #8A867A",
"8  c #8D8A7C",
"9  c #928C7D",
"0  c #91907F",
"q  c #8F8C80",
"w  c #938D82",
"e  c #949285",
"r  c #9A9386",
"t  c #969489",
"y  c #9B958B",
"u  c #9C998D",
"i  c #9E9B90",
"p  c #A0978D",
"a  c #A19A8D",
"s  c #A49D92",
"d  c #A89F95",
"f  c #9FA093",
"g  c #A4A195",
"h  c #AAA295",
"j  c #A6A499",
"k  c #ACA59A",
"l  c #ADAA9D",
"z  c #B0A79F",
"x  c #B2AB9E",
"c  c #AEADA1",
"v  c #B4AEA1",
"b  c #AFB2A4",
"n  c #B5B2A4",
"m  c #B9B3A6",
"M  c #B6B4A9",
"N  c #BCB6A9",
"B  c #B7BAAE",
"V  c #BDB9AC",
"C  c #BEB7B0",
"Z  c #BEBCB1",
"A  c #C0B6AD",
"S  c #C2BAAE",
"D  c #C4BDB2",
"F  c #C8BFB5",
"G  c #BFC1B4",
"H  c #C3C0B5",
"J  c #C6C1B7",
"K  c #C8C0B4",
"L  c #C8C1B7",
"P  c #CBC3B6",
"I  c #CAC4B7",
"U  c #C6C3B8",
"Y  c #C6C4B9",
"T  c #C8C3B9",
"R  c #CCC3B9",
"E  c #CBC5BA",
"W  c #CAC6BB",
"Q  c #CCC5B9",
"!  c #CDC4BB",
"~  c #CCC5BB",
"^  c #CBC7BC",
"/  c #CEC7BE",
"(  c #C7C8BD",
")  c #CCC8BD",
"_  c #CECABF",
"`  c #D0C7BE",
"'  c #D0C8BB",
"]  c #D0C9BF",
"[  c #D1CABE",
"{  c #CECBC1",
"}  c #CECCC0",
"|  c #D2C9C0",
" . c #D1CAC0",
".. c #D4CBC2",
"X. c #D0CDC1",
"o. c #D5CCC3",
"O. c #D3CFC4",
"+. c #D6CDC4",
"@. c #D7CEC5",
"#. c #D8CFC6",
"$. c #CDD0C3",
"%. c #D4D1C5",
"&. c #D5D3C7",
"*. c #D8D1C7",
"=. c #D6D3C9",
"-. c #D9D2C8",
";. c #DBD4CA",
":. c #DAD5CB",
">. c #DBD7CC",
",. c #DBD9CD",
"<. c #DDD9CF",
"1. c #DFDBD1",
"2. c #DEDCD1",
"3. c #E0D9CE",
"4. c #E0DCD1",
"5. c #E1DDD3",
"6. c #E6DED2",
"7. c #E4DBD4",
"8. c #E3E0D5",
"9. c #E5E1D7",
"0. c #E4E4DA",
"q. c #E8E4DA",
"w. c #EBE4DC",
"e. c #EDE6DD",
"r. c #E7E8DE",
"t. c #EBE8DE",
"y. c #EFE8DF",
"u. c #E7E7E0",
"i. c #EFE7E0",
"p. c #EFEBE1",
"a. c #F2EDE2",
"s. c #F6EFE8",
"d. c #F3F1E7",
"f. c #F4F4E9",
"g. c #FCF6ED",
"h. c #F7F8EA",
"j. c #FBFAEE",
"k. c #F4F7F0",
"l. c #F4F9F1",
/* pixels */
"k s h h d h s h h h h h x D _ a a u s u a r p r u u p r r u u r r r e r a s N w e w y r w 9 9 9 9 9 8 9 9 9 8 9 8 9 9 w r 9 n 7 ",
"r r a u u s a s h h a d h V a h a s x h s s p a a u s a a a h a h a p p s s s s u s s s s u s s p a a s p a s p r r r u r S h s ",
"y.e.p.y.y.q.9.4.1.>.4.1.<.*.*.-.*.@.@.@. ... .] ] N L ~ ] I ] ~ L _ ' D N S N S N m N m N N N D S z m N N N n x k h h p l k h h ",
"v ;.J O.X.&.} X._ _ _ ^ E ~ / / D ~ / T R F D R s k D L D D L D D S D A S m N S A v N m m m m V s w v m v N N x x v x n v v x x ",
"V / X.D J H H J D D D D D D D D D D D D D D D h s w D N V N S N S m N N N S S L L 7.p.s.7.m x s u 3 m S ' V n x x k l h l j j l ",
"V  .] T U D D J J D D D D D D D D S D D S D D s h y L N S S N N N m N N N N m S N N N m m m v p y 3 m v v n v n m n x x v M m m ",
"N ~  .D D T J D D J D D D D D D D D S D D D D d s w L m N N S S N N m N N N N S N N N m N m m u u 3 v v m m v m n n v n v v m x ",
"m D / T J D J J J D E D L D D D S S D S D S D s s 8 D N S N N m N N S N S N N S N S N N N m N u u w m v m m m n n n n n m m n v ",
"v m ^ J J J D J D D J T D D D D S D S S D D A s s 8 D m S N N N N N S N N N N A N m N m N m N s a z v m m m v n n m v v v n m v ",
"M V ^ H U D T J D D D D D D D D D L D D D D A s s w S A N N S N N N S D m N N N N N N N m v N k u a.m x N v n m n m n n m v v m ",
"v J _ D D J H D H D J D D D D S S D S D D D D k s w D N N N S N N A N S N m N N N m N N N N v k u  .m m v m m n n m v m v n h v ",
"v v { U U J U H D H E L D J J D D D D D D D D x s y S V D S N S S A A S N N S m N N m m N N m h y f.N m m m n m n v m m n v v m ",
"M B _ l u s i u s u i y y u s s s a s s s u s s h v I m j x k k x x k x k x k x k k x k k x x h r A N x x x l h l x k h l x l l ",
"j j n j l j j j j l g s s s s s s s s h s s s u y q.E w w e u r w 9 w r w r 9 w r r r 9 9 r 9 r 8 g V r e 0 e 9 e e 8 e 9 e 8 e ",
"n M V c M B v l j j l j k s s y w s w w y u y u 8 8 w 4 < : : : - * # - * # @ + - : - : 2 5 2 2 5 7 u r 4 7 8 7 < 4 4 < > > : 4 ",
";.&.X.} &.^ } _ O.{ } &.{ <.C  .o./ /  .] ~ E ] X._ ~ ~ ~ ~ ~ /  .R ~ L @.S S D L L R L D J L D S D D D L D V H H N V V L V M N ",
"H H U U U Y U E D J J _ / l m ~ T D T F F T ~ L D J D E D D N D D L L 3.m a L N N D L D x N m l m m m m V M m M n n m m l y V v ",
"J J T D D J J J D D D D v x l D N D D D D F S S D S D D S S N S S N N N k s v D N N V V N V N V m N N m m N N N M M M M y y V l ",
"Y J J J D J J J D T D D v v l ] D D D F D D S D D D D D S S S S S S N S k s x S m N N V V V V V N N V V M M N M B M M N t u V n ",
"U E T E T J J J D D T D m l k T D T D D D D D D D D D D S D D S S S S S k s v N m N N V N V N V V V N m N M N M m M M N t u M n ",
"Y E J E U U T D D U / D v x l L D D D D S D S D D D D S D S S D D S N D k s h ~ v S N S V m V N N m V V N N M N n M M n 0 u N l ",
"U U H E D U D J J D D D m x s L D D D S D S D D S D D D S D S S S S D V v s l S N S N N N V V V V m N m m m m N M M N M t u M l ",
"E Y U J U ^ U J J J D D m h a L S S S D D D S F D D S S D D D S S S S S v s h S m N N S S V m N N m N m m N N n M M M n y u N v ",
"_ E Y E D T U T D J D D V x s I D D D S D S D D D L S D D D A S D N S S v s z N m N S N N m N N N N m N N m M N n m n m f f c l ",
"D Z Y Y Y J J T ~ T L J E h s J J S F D D D L D D ~ D L ~ D V D L D D L x s g.N S D H S V V V S S L V V V V N N N N N N u g Y l ",
"g j i s i i s u r a u r 9 s k  .u d y p p u y u s s r u u u g t t e y y e u s.J y u e t y y t y y w t t e e e e e e e i u e { n ",
"@ .   $ @ @ $ + O # o X & - 4 : - o + O + + + % % - & & & * * ; $ ; , - < 6 8 > $ = & ; - ; > > , < 4 3 6 1 7 4 4 7 7 7 6 y g 8 ",
"2.;.Y 2.,.=.1.<.&.;.>.>.<.;.&.-.&.-.-.;.-.@.@.#.@.d.v @.] @.@.] _ X._ >.H B { M M _ =.{ Z b M _ } =.g =.H H N E &._ _ _ _ _ &._ ",
"_ l Z D { O.{ { { _ _ _ E X.{ { X.^  .{ _ ~ ~ / T g x N ~ L L L L _ 0.&.f.0.d.r.k.k.k.k.l.l.f.f._ w i V m M n M B V V V M N m M ",
"m x V _ D J D J D Z D D D V D D D D D D D N V S m h l S m N m N m M l M N M n b l b n n n c c c j t w V n m M n M v m M n n n n ",
"V v v E D D D J D D D D S D D D S D A N A A S N N l k S m N m m m n m n M M N B M M N M M N v M l u y V v n n n n n n m n v n n ",
"J n x E B J D D D J D D D D S D D D S S S S A S v d h S v N N N m M M N m M N M M M M M M m M n l u t N m m m n m M n n m n M l ",
"V n x _ D D J D J ~ J V D ~ D D D L D N S N S D S d k D m m m m m m N n V N M m m n M c n n m n c u e M n M n N n M M v n n M n ",
"S x x _ V D D D J D J D J D D D D D S D S D D N S s h D m N m N N N N N N N N N M N M N n m M n n u t V v m m M M n n m M n M n ",
"N x h _ D H H H D D V D D D S D D N S S D D D S S h h D m N N m N N N V N M n m m N M v v M n m m y j N l N m m M M n n M n M n ",
"D x l &.H H H J D J D D D D D D D S S D S S S L D k s L S N N N N N V N N n N V V N M M M M M m v s j N v n N M M m M x M m m m ",
"J v x _ H H _ Y J T J E ~ L J D D D D S D D S ~ S l h ] S S D S S D N N V V S V V V N N V D N M n i s V n N M M M M M n n M M N ",
"y l m &.t u u i y t t u u u u y t t y y u y u w u k k ] 8 e t 8 q 7 8 8 w 7 7 7 7 7 7 q 8 8 6 7 4 w s V e 7 4 1 4 7 6 6 4 6 7 6 ",
"4 3 u t < 3 8 q e 8 u y e t t q y w w q w w e q 7 w k u e w t w e e q e q 8 w e 8 6 w 7 8 q 8 4 7 6 e j q e i i i u u u i y u y ",
"8.u.0.f.u.8.0.0.u.0.t.0.0.t.y.7.7.4.7.4.4.4.w.7.q.7.4.;.q.4.4.;.-.4.2.,.=.8.} X.&.&.&.&.4.=.,.,.0.r.0.$.$._ _ E _ _ _ _ E E X._ ",
"&.&.O.&.&.X.&.;.O.&.&.X.X.X.l  .D  .` / @.] ]  ./ / T T ` / ~ / R _ _ } h.Z j D D D D J D H G B B Z U Y G N B V V V V D B M u V ",
"T D J D D D D D D D D D D j v ] D D A S A A N A N m N m A D V m m v N V N r h D n v n m c n v v M v n v n M n v v M m l M e u H ",
"D D D D D D D D D D S D S h v ] D N N N A N N N N N N N N N N m m m m N x r x ~ m v x l m l v v v x l v l l v k l k l n m t y H ",
"D D D D D S D D D D S D D k x T D N N N N N N N N m N m N N m m m N n v N u g D m v x n x x v l l x l l l l l l l l l l l t u H ",
"L D D D D D S D S D S D D h v F D N S S N S N N N m N N N m m S m v N N m p h  .N x x v x x v l x l x x l v k l v l l l l t g V ",
"D D D D D D D S S S D S S h v n D N N N N N N S N N N m N N N N m m m m v a x R v n v v x x v x x x l v x v l l c n l l l t u N ",
"D D D D D D D S S D S D D h v x L S S N N S N N S N N m m N m v N N v N m a x ] m v v x x x n x x x v v v x l l n l l l l u i D ",
"L D D D D D D S D S S S D h k h L N N S m S S N A N m N N N N N v m v m m u x L x v v v v v v v x x v x l l v l l l l v n y i D ",
"L L ~ R D E ~ L I L L D D l k h L S D D S D V S V N S S V N N D N m v S m u h N m m m m m v v v v v v l v l v v l v l n l y s U ",
"w w w 8 8 8 8 w w 8 5 9 7 9 x a ~ 7 7 5 5 5 7 7 8 7 7 5 7 3 5 3 5 5 3 2 3 w h x N 2 4 1 < 1 3 1 6 4 3 4 3 4 3 3 4 4 7 7 4 u u D ",
"u r y y e e u t t y u y y u u 8 y y y u u s s u u i y u u a a u u a u y w 7 w s 7 8 8 8 8 8 8 7 7 w w 8 8 q 8 8 w 8 8 8 4 4 w N ",
"4.4.<._ <.,.f.j.j.p.y.p.y.a.a.e.e.e.e.w.w.6.7.4.9.9.a.<.4.q.4.4.7.;.-.3.4.4.7.3.&.;.&.=.E U E _ _ &.8.X.Y Z _ J } X.&._ X.=.J B ",
"-.;.V N H &.&.X.&.&.&.X.&.O.O. . .@. .X.X.} X.{ { ^ v _ D } _ { ^ ^ { / ^ U Y Y Y Y Y E _ _ E H J Y g E H Y Z Y J V D H Z Z Y H ",
"J D l m E D D D D D D D D D D D D V D S S D Z D V v j D V V D D D B V V V B V B B B M D V V V M V g g D n V V M V B V Z Z B N N ",
"J S x v T D D S D D S S D S S N S S N S m S V V V v x @.J N N N S N N N m N M N n n M m m m M M M i k V M m n M m n n n n M m n ",
"J S n x / D D D D D S D S D S S S S S N S N S V D v j S D m N S m N N N N m m N M m N n m M m M N g j N M m m m m m n n n n m n ",
"J N v x ~ D D D S S S S N S S S N N S S S N S V V v l v S N m N m N m m m V m M m m m N m M M N N u k v M n m n n m n n m n n n ",
"D S v k / D D S D D S D S S S S S S S N S N S S S v h k S N S m m m m N m N N m m N m N M n n l M u j l n m M M n M l n v n n M ",
"D D v h ~ S L N S D S S S S S S S N N S S N N V V v h k S N S m m m N N N m m n m m m N m n m n n g k k n m m n n v n n n n n n ",
"D S v k ~ D S S D D S D S S S S D S S N S N N N V m j s N N N N N m N m m m m m m x m n m M n n c g l k n M M m n n n n n n n n ",
"L S v h ] D D L D D D L D S D S D D S S D S N V D m j k D N S N S N m N N m N m N m N M m M m m M g g l M m n M M M N n n n n n ",
"w 8 v N ~ a 9 9 9 9 7 9 9 7 5 5 5 5 7 5 7 w w 8 7 w v k S y < 2 4 4 3 2 4 4 4 7 7 5 7 4 5 4 4 5 5 7 h n V 8 8 7 8 4 6 6 8 5 4 4 ",
"u y 9 v v w y r a s u s u u r r w u y w w 7 8 7 7 4 4 l s 8 8 8 9 w 8 e 7 8 w w e e e 8 8 5 e 8 8 8 8 l 6 5 8 8 8 8 8 8 8 8 8 e ",
"e.e.w.w.w.w.w.e.i.e.w.w.w.w.4.4.4.w.q.q.w.q.q.4.,.,.>.<.>.,.} O.&.4.>.&.,.,.&.<._ ,.,._ E E Y _ ( B B Y B E X.X.&.E X.;.4.&.,.4."
};
