/* XPM */
static char *_a21a944bc604a69cbadbe22f47af2dcaSVbvLYd2qNAxqJa[] = {
/* columns rows colors chars-per-pixel */
"64 64 254 2 ",
"   c #070708",
".  c #130805",
"X  c #0E0F12",
"o  c #001511",
"O  c #0E1215",
"+  c #0C141A",
"@  c #141414",
"#  c #13161A",
"$  c #181818",
"%  c #1B1A1B",
"&  c #28170B",
"*  c #231C18",
"=  c #07260A",
"-  c #28231B",
";  c #3C2A10",
":  c #3A2817",
">  c #0C1222",
",  c #171A22",
"<  c #221E23",
"1  c #1C2629",
"2  c #1B3637",
"3  c #252626",
"4  c #2C2B2D",
"5  c #372D26",
"6  c #3A3428",
"7  c #3C352D",
"8  c #282C33",
"9  c #302E30",
"0  c #2A3238",
"q  c #363536",
"w  c #3C3A35",
"e  c #3C3C3B",
"r  c #452518",
"t  c #48361D",
"y  c #623A15",
"u  c #443523",
"i  c #4B3B24",
"p  c #463728",
"a  c #453A2C",
"s  c #4C392C",
"d  c #4C3C2C",
"f  c #523D27",
"g  c #433C34",
"h  c #493D34",
"j  c #433E3A",
"k  c #2D542C",
"l  c #63451E",
"z  c #4C412E",
"x  c #53432D",
"c  c #594528",
"v  c #5A452C",
"b  c #4D4234",
"n  c #44423D",
"m  c #484338",
"M  c #4B443C",
"N  c #544433",
"B  c #564635",
"V  c #5C4A33",
"C  c #54493C",
"Z  c #5C4C3D",
"A  c #5F523C",
"S  c #634627",
"D  c #654C2C",
"F  c #6A4E2D",
"G  c #754F2B",
"H  c #6A512E",
"J  c #634E34",
"K  c #644D38",
"L  c #6B5433",
"P  c #68533A",
"I  c #6C553C",
"U  c #755938",
"Y  c #755C3C",
"T  c #77613F",
"R  c #7C623E",
"E  c #083B41",
"W  c #2A3547",
"Q  c #3A3D44",
"!  c #374851",
"~  c #375364",
"^  c #3B6B69",
"/  c #444443",
"(  c #4A4643",
")  c #4C4944",
"_  c #45484A",
"`  c #4B4B4B",
"'  c #554A43",
"]  c #534C45",
"[  c #534E4B",
"{  c #5A5346",
"}  c #51514F",
"|  c #54534C",
" . c #5C534B",
".. c #484C53",
"X. c #495559",
"o. c #545453",
"O. c #565757",
"+. c #5C5A55",
"@. c #5B5C5C",
"#. c #6C4F4C",
"$. c #675848",
"%. c #735D43",
"&. c #785E45",
"*. c #645D57",
"=. c #5F604E",
"-. c #5D635C",
";. c #756146",
":. c #7B6444",
">. c #75624B",
",. c #7B654B",
"<. c #7C694C",
"1. c #64625C",
"2. c #6C6459",
"3. c #786755",
"4. c #7C6C5B",
"5. c #49546E",
"6. c #595C64",
"7. c #625F60",
"8. c #5B6466",
"9. c #566E79",
"0. c #636362",
"q. c #676868",
"w. c #6B6B6B",
"e. c #766D65",
"r. c #71706F",
"t. c #787469",
"y. c #686A77",
"u. c #6B7677",
"i. c #777978",
"p. c #815C30",
"a. c #85633C",
"s. c #866846",
"d. c #846B4C",
"f. c #8F6F4A",
"g. c #98744A",
"h. c #836C53",
"j. c #856C57",
"k. c #9D6E5F",
"l. c #8C7354",
"z. c #85735B",
"x. c #8A7459",
"c. c #987957",
"v. c #A37B4D",
"b. c #A47D53",
"n. c #867666",
"m. c #8B7B65",
"M. c #8C7C6A",
"N. c #937C63",
"B. c #967D67",
"V. c #877C76",
"C. c #997176",
"Z. c #C67E75",
"A. c #10A715",
"S. c #62A22B",
"D. c #669261",
"F. c #9A825E",
"G. c #A9824F",
"H. c #A98458",
"J. c #B68B58",
"K. c #B28B5C",
"L. c #BA925E",
"P. c #91846F",
"I. c #998369",
"U. c #8A8479",
"Y. c #978877",
"T. c #A78966",
"R. c #AC8C6A",
"E. c #B48E66",
"W. c #B89468",
"Q. c #A58C75",
"!. c #B08D72",
"~. c #A7937A",
"^. c #B79677",
"/. c #9FA679",
"(. c #C3955E",
"). c #C59966",
"_. c #CA9679",
"`. c #CDA16B",
"'. c #D4A66D",
"]. c #C9A375",
"[. c #D8AA74",
"{. c #DDB278",
"}. c #E0AF76",
"|. c #E6B77A",
" X c #EAC77B",
".X c #F2E67E",
"XX c #5B6B88",
"oX c #7B7D85",
"OX c #6A7790",
"+X c #677DA3",
"@X c #977D82",
"#X c #559195",
"$X c #6F8B8C",
"%X c #7A8588",
"&X c #7D848B",
"*X c #7D8792",
"=X c #7283B0",
"-X c #6D8EC4",
";X c #81858C",
":X c #878989",
">X c #958A85",
",X c #94918A",
"<X c #848A92",
"1X c #858B96",
"2X c #88929A",
"3X c #8C939C",
"4X c #979799",
"5X c #A99A86",
"6X c #B09783",
"7X c #A39C9B",
"8X c #B5A38B",
"9X c #ABA29B",
"0X c #8C95A3",
"qX c #9499A3",
"wX c #969BA6",
"eX c #9194AC",
"rX c #A29EA0",
"tX c #9DA2A8",
"yX c #A7A7A8",
"uX c #B5ADAA",
"iX c #ABAEB2",
"pX c #B7B6B9",
"aX c #D39188",
"sX c #E79D9B",
"dX c #C5A586",
"fX c #D4B08B",
"gX c #D9B995",
"hX c #EBBD85",
"jX c #CDB9AD",
"kX c #F4C98B",
"lX c #F6CA8A",
"zX c #E6C49B",
"xX c #FDD696",
"cX c #FBE69E",
"vX c #D0C4B6",
"bX c #EDD0AE",
"nX c #FEEAB1",
"mX c #BCBEC2",
"MX c #ACB2D1",
"NX c #B8C5D9",
"BX c #C3C4C4",
"VX c #C7C7C8",
"CX c #CBCCCC",
"ZX c #CECECE",
"AX c #D5D2CE",
"SX c #D4D3D3",
"DX c #D8D7D7",
"FX c #E2DBD6",
"GX c #F9E9D2",
"HX c #D1D7EE",
"JX c #D9E3ED",
"KX c #E4E6EB",
"LX c #E6EBF3",
"PX c #F7F7FA",
/* pixels */
"M.M.M.M.M.m.m.m.M.m.m.z.z.z.z.z.h.h.h.<.<.<.<.<.,.<.<.<.<.,.:.:.;.;.;.;.;.;.;.;.,.,.:.:.:.:.;.&.;.%.%.;.;.;.;.;.;.;.%.%.%.%.%.%.",
"M.M.M.m.M.m.m.M.m.m.z.z.z.z.z.z.h.h.<.<.<.<.<.<.<.<.<.<.,.,.,.:.:.:.:.:.;.;.;.;.:.:.:.:.:.:.;.;.;.;.;.;.;.;.;.;.;.;.%.%.%.;.%.%.",
"P.P.B.M.P.P.P.P.m.B.m.x.z.z.z.z.z.h.h.d.<.h.<.<.d.<.<.d.<.<.<.<.,.,.:.,.,.<.,.,.:.>.,.:.:.&.;.%.Y %.%.%.%.%.%.%.;.%.%.I I %.P I ",
"!.R.p I.T.T.T.T.T.T.E.W.W.).`.'.[.}.|.|.|.kXkXxXxXxXxXcXcXcXcXcXcXcXcXxXxXxXkXkX|.|.}.[.'.`.).L.K.H.H.H.G.H.H.K.L.).).'.[.}.}.|.",
"^.W.R.% T.R.T.T.T.R.E.E.W.W.).).'.'.[.[.{.|.|.|.hXkXkXkXkXkXkXxXkXkXkXhX|.|.|.|.{.[.'.`.).).W.K.H.G.H.H.G.H.H.K.J.L.).).`.'.[.}.",
"^.^.W.T.z.T.T.I.I.F.F.F.F.F.H.H.H.H.K.K.E.E.L.L.L.W.W.W.).).).).).).).(.(.(.W.L.L.E.K.H.H.b.c.c.g.g.g.g.g.c.c.b.H.H.K.L.L.).).).",
"^.R.R.T.c c.F.F.c.x.x.l.l.l.l.l.f.d.d.d.d.s.d.s.s.s.s.s.s.s.s.s.s.s.s.s.s.s.s.:.R R R R T R R Y R R R a.s.s.s.s.s.s.s.f.f.g.f.g.",
"c.N.N.I.x.$.x.x.x.x.l.l.l.l.d.d.d.d.d.s.d.:.:.:.:.:.:.:.T T Y Y U U U U U Y Y Y Y Y Y Y Y Y U Y Y Y &.R :.:.s.s.a.:.R Y Y T &.Y ",
"% , % # % # @ @ @ |.|.hXkXkXkXxXxXxXxXxXxXkXkXkX X|.}.'.`.(.L.J.G.G.G.J.J.).`.[.}.|.kXkXkXxXxXxXxXxXxXxXxXkXkXhXhX|.'.).J.K.b.g.",
", , # # + + + O @ ^.).).).`.`.`.).).`.).).L.J.J.K.G.b.v.g.g.f.a.a.a.a.a.a.a.f.g.g.v.G.H.K.K.K.K.H.H.H.b.v.g.g.f.s.a.Y U U L L L ",
", , , , # # # # O @ :.:.:.:.;.T Y Y Y Y Y U Y Y L L L L L L H F F F D D D D D F D F F D D H F F F H H F H F F F H F F F D D D D ",
", , % % % # O # @ O   >.;.%.%.Y Y %.%.Y Y U U U L L L L H H H H H F H H F F D F D S S l l S S G p.g.W.].fXzXbXnXnXnXGXnXnXnXnXnX",
"# # # # , @ O O O O O X @ I I Y Y :.s.s.g.b.G.J.(.).`.'.[.{.}.|.|.|.{.[.'.'.).).J.J.v.v.v.g.b.b.K.J.).).`.'.[.{.{.{.{.{.[.'.].).",
"+ # + # # # @ @ O O X X   & J J J J J J J L J L L L L L U U U U L L L H L H H D D D c c c v S S S S S S S D D D D D S D S S c c ",
"+ + + + O X O % @ @ @ X       % v V J P I R f.c.H.L.).`.[.{.{.|.|.{.{.[.).).K.H.v.g.g.v.H.K.).`.'.[.[.[.'.`.).W.K.H.c.f.s.U L D ",
"+ + + O O O O @ @ X X @         f c x x x c c c c c c v v v v V V v v c x c v c f f i f t f i t t i t t t i t i i i i i t i t z.",
"+ O O O O O O @ @ @ @ @           . v L I %.R :.&.Y Y L J J V v B B V B V V V V v v v v c f i f p i u i t i t jXh.!.].~.K B K N.",
"# # # @ @ # O @ @ @ @ @             X c.K.).'.{.}.}.[.'.).).H.b.c.c.c.H.T.R.R.T.c.c.f.R U D c x : M e.2.Y.P f z.^.T.S d.^.^.T.d.",
"% % % % % @ @ @ @ @ @ @ 7 6 7 7 7 w BX%X6 u a z x V J Y %.:.s.:.&.<.%.K V N N d p d 5 o 2 # 1 0 -.{ Y.<.Q.4.&.l.zXzXy !.^.F ^.E.",
"% % % % % % % % @ @ @ @ p 6 6 6 6 6 6 p 6 a a a a d b x N V B x C     . , R.>.@ w   n E E 2 8.q 2.8XQ.m.;.Q.&.fXfXL.s.& E.^.T.fX",
"@.% % % % % % % % % % % u : : : : ; ; ; ; t i i i i f c c v V A +.# jX  =Xm.2.g 7   ( ~ E X.u.-.t.A zXQ.Y.I.R.c.bX].[.fXfX:.R.dX",
"% % % % % % % % % % % % z i d x x N N v J J ;.Y P J P { z N.d.7 MX, MX  HXx 2.j g a.] ^ ~ ! %X-.U.5X5X:.8X~.{ : & 7 q o.*.1.0.*.",
"4 [ % % % % % * * % * - #X5.! 8 0 1 1 0 ^ $X$.^.6 & z =.t.N.N.C _ > 4X  JXC &.q 0.S M #X^ $XX.8.U.5XY.Y.~.,.2.5X1.1.*.*.*.0.0.0.",
"3 q.% < ` < % 3 < * * * X.1.[ 2.' { ] ] 2 | A E.6 6 Z 2.P.!.5XY.y.  VX  Q - ].r.*.C b i.| OX$Xu.8.t.Y.Y.~.5X[ +.V.dXdXdXY.q.q.w.",
"VXBXmXmXmXBXBXVXZXVXI.Q.Q.6XM m w q 9 M 1 ] P.zX=.+.{.|.|.hXnXGX/   +X  V.  dXO.) {  X|.|.|.$X$X%XD.t.n.n.m.7 - ) w xXxXxXxXXX#X",
"W W W _ Q iX6.O.9 LXPXPXPXPX4X6 M 9.O.w 1 m V V M 2.JXZXSXCX6X~.w.    HX& Q 4.r.n w.VXVXZXZX$Xu.u.D.n.U.Y.t.6 3 uX..e KXKXHXLXXX",
"y.eXy.X.X.0 8.Q  .wXwXwXwXtX4X` r.~ 8.| w m n.-.q.D.2X6.X.2XY.Y.KXO.0XNX$.O.[ U.q.y.0X+ + 1 9.9.iXu.,XU.,X9Xq.4 :X4 Q + + + eXw.",
"y...o.1 _ Q XXQ 8 wXeX0X0XwX4X` 8...:X+. .m 7X:Xt.O.2X= S.2XP.Y.AXQ 0 HXw e _ V.-.r.1XS.A.X OXu.u.-.8.i.i.( -.3 r.4 q = S., eXo.",
"OX9 9 < @X* 8.Q 1 0X0X0X2XwX4X` 8.! ` 2.C $.>X| q 9 1XA./.1X/ e ,X0 0 HX9 8 0 / 6.w.*XA.k X $X%Xr.8.-.-.1.| o.4 7.$.q = S.> 0X` ",
"0 4 4 4 :X4 X.Q 8 2X1X2X1X3XyX` 8.~ ) 1.Y.V.) } q e &X*X&X%X2.] oXJX0 HX4 Q X.1 6.w.*X;XC.1XX.u.u.8.q.i.q.+.O...+.~.q 1XC.1X3X/ ",
"0 9 4 q U.j.( ..8 2X2X2X1X2XrX_ q./ n e.,.r Q e Q q *XaXaX;X$.Z o.u.eX9 3 0 +Xq @.q.<XaXaXaX%Xu.u.o.-.q.O.+.@.r.o.h q aX_.aX3X_ ",
"Q 4 9 j >X@Xe.X.8 2X2X2X2X2X7X_ @.n / 2.2.. 7.:X0 r.@X_.aXk.nXnXbXHXMXNX, 0 HX! O.w.<XaXZ.aXu.u.w.-.i.q.O.0.@.D.o.jXq aXk.aX1Xq ",
"y.8 O.y.AXDXFX_.W.3X0X0X2X*X4X_ O.) [ e.a . Q i.%X-.*XsXsX1X .1.+.NXOX=X> 0 2 W O.w.1X2X@X2X8.u.u.o.o.i.q...` :X@.dXe wXC.wX3Xo.",
"y.y.9 OXFXSXFX!.).wXiXyXiX*X,X_ O./ ) ] 6 . ..:Xw.+.yX6XY.7XV %.4.W 5.XX> W W ! ..8.q.yX7XyXm.u.u.O.r.q.6./ ` q.@.gXw ,XC.>X>XY.",
"..9 yXZXSXSXvXQ.U.yXCXAXCX..3X_ O./ | +.{ 6 *.Y.Y.Y.h f u !.8 8 4 OX+X=X-X~ +X/ 8.@._ k.C.Q.I.B.u.-.| ` o./ / -.0.gXq / ` k.9X#.",
"y.9 y.i.BXpXGX>X,X4XjXjXy.6.<X/ 8.8.` | C 5 ) M w Z dX#.#.!.>XO.e MX=XOXPXJX-X/ ` @.j } !.~.^.^.8X| | o.o./ / ` 0.fXq / _ [ ` GX",
"8...VXq.y.6.X.,X,X7XuX` _ ` i./ o./ ) ] M 7 ` _ n W.#.#.Z T.o.Q.z.uX>X9X>XU.U.n ` 0.n n KXJXJXLXKX- *.o.| e / / w.fXq / / _ ( pX",
"6._ _ O.0.6.6X^.!.R.Q._ / ) @.` o.n n ) m h ) j ( <.d.d.d.d.) g *.w.*.) 6 M o.n } @.n j wX2X X Xu.- * o.o./ q.e w.dX7 n / _ ) ` ",
"VX6._ DXDX..LXPXPXPXO.! e / [ / / . ( ) C h :Xj w KXDXDXDXDX2.[ V.q.q.` 5 ) ` i.` 8.w n PXKXcX.XJX6 6 +.o.` n w w.- 6 w e / _ ) ",
"X._ _ ..O.wXwXqXqXqXQ e e ` ` ` / g ( ] ' ] ] ] ( &X&X&X&X&X*.$.+.7.q.( g M ` / ` -.j e tX3X0X0X0Xb N +.+.j / w r.3 6 w w e / / ",
"../ _ _ ..;X;X<X<X<Xe q w ` ` ` w n n ] ] M ] ]  .oXoX&X&X%X2.*.*.0.2.j m ( ] / | @.j n i.2X3X3X0XZ Z +.+.e / q q.- 7 w w j j q.",
".._ _ _ ..u.&X&X;X<Xq w w ( [ O.j n )  .m M ] ] ] &X;X;X<X;X2.1.1.+.e.M 5 j +.( +.@.n n Q 0XwXwXwXC Z +.+.( ) w r.- 7 g w j n / ",
".._ _ _ ..u.*X;X;X;XQ w w n ` -.w n [ | { ] ] $.] ;X;X<X;X;X2.1.1.1.2.M b M [ ) 1.o.M ( Q 0XwXwXwXZ Z *.+.j ) e w.3 7 g j j n } ",
"..6.../ _ i.*X;X&X;XQ j j M ` 1.w M ] | ] { ] {  .%X;X;X;X;Xe.2.2.e.e.{ b  .| ] >X+.M ( Q 3XqXwX0XC Z *.+.M jXU.r.6 w g j M ) +.",
"` _ _ _ _ oX*X*X&X&XQ n n M ` >.6 C { { $.$.$.>.3.%X&X;X;X&XP.n.M.M.I.s.s.n.m. .$.$.] ] _ 3XqXtXqXl.g.2.q.' ~.C r.cXm j M ( ) q.",
"@.@.@.0.*.i.*X&X;X&X/ n m h ) n.{  .$.K Z >.$.N.&.%X&X&X&X;XY.~.n.&.P %.I %.j.2.$.V.M ] ` 3X0XwX0XB.T.d a a a >.U.I.h h j M ) w.",
"w.0.@.w.w.oX&X&X&X&Xe j w 7 *.5 a d 4.4.i.<X$.,.,.&X&X%X;X;X^.N.>Xe.2.3.4.m.I.B d $.g ] ` 3X3X0X0XM.T.d d d a a d 3.b g h M ( r.",
"r.w.q.i.oXoX&X&X&X&X/ g g 7 5 a a N P.Y.V.V.h.d.d.%X&X&X;X;XT.h.3.h s p a B c.& N b M [ [ 3X3XqX3Xe.N.N d d d a a d h g h ( ] i.",
"r.0.q.i.r.oX*X;X&X&Xe g w 7 a g z & I.Q.c.,.d.g.E.%X;X;X<X;XK.l.' d d u p J Y Y N b M ] [ qX3XqXqXe.x.K x d i h a a a h h ) ] i.",
"i.:X4X4X,X;X;X;X;X&Xn j j M h h N %.x.d.%.d.f.H.H.;X<X<X1X<XH.E.I d u u : u J s.p B M ] } 3XqXqXqXT.T.x J B d d d b g h m ( ] V.",
"4XuXpXvXVX;X<X<X<X;X/ j h 7 g b J I B.l.h.d.,.d.c.<X1X1X2X1Xc.f.%.B d d u u x Y %.N M  .o.qXqXwXqXI.T.x f J K N x m a m m ( [ :X",
"jXBXBXBXBX:X<X1X2X<X/ n j g b : I V T.W.x.$.K K :.2X2X3X3X3Xf.s.I B i d u u u P I $.C  .| wXwXwXtX~.E.B d f V d N N g h m ( | U.",
"+.+.+.o.+.yX3X3XtX3X/ j m b B %.K V r.e.2.$.Z K h.4X3XqX4X4XH.Y %.J x x d u u V %.I Z  .| tXtXtXtX~.E.V z d d B d * b m b ] [ e.",
"9X9X9X9X7X4X3X3XqXqX/ M M h B K x B 2.e.3.$.Z $.x.wXwXtXtXtXb.g.Y V N x d u u N &.%.Z  .o.iXiXiXiXY.E.J N N z x V d & N b ' | 1.",
"uXuXuX9X9XyXwXwXwXwX_ M M - K N z x 2.4.2.$.P &.l.yXyXyXiXiXf.f.I x d d d u u d J %.{  .o.mXpXmXpXY.H.V B B B B B B a * M '  .*.",
"7X7X7X4X4XpXyXyXiXiXo. . .%.%.x.Q.l.>.%.$.$.>.h.R.BXBXVXCXCXc.K.'.'.[.`.).W.c.d.l.,.,.$.( SXSXSXSXn.K J K K &.K Z B Z a * ]  . .",
"rX7X7X4X4XCXmXmXmXmX .$.N &.>.I.6Xc.l.,.h.,.h.N.6XBXSXZXZXSXb.E.'.}.`.).W.W.^.^.Q.I.z.. *.SXSXDXSXY.<.<.h.h.m.4.3.$.$.$.M * { $.",
"yXyX7X4X7XCXBXBXVXBX .5 $.<.z.M.~.I.N.h.c.T.!.8XfXCXCXZXSXSXc.H.W.W.].[.[.].fXfX8X5Xz.3.2.DXSXCXCX~.&.%.,.<.$.m.3.$.$.Z Z b % ] ",
"yX4X7X4X4XBXpXpXBXBX+.{ 3.z.n.M.5XQ.I.I.!.fXzXbXvXSXCXCXCXCXH.E.E.W.[.|.kXxXxXgX5X8XP.4.g CXBXBXBX5Xl.d.h.N.5XY.Y.4.>.{ { Z b * ",
"yXyX7X4X4XyX9 9 8 9 7 4.4.t.P.P.5XQ.Q.Q.R.6XjXvXvX9 9 8 4 4 W.^.E.E.W.).].zXgX8X5X8XY.n.$., 3 3 3 I.T.l.x.I.~.Y.~.m.4.$.$.Z { b ",
"uXyXyX7X7X4X4X4X:X:Xt.4.4.m.P.Y.5XQ.~.~._.gXjXvXbX<X4X4X4X,X^.^.!.R.E.W.].zXgX8X6X8XY.M.M.4X4X:X:X~.T.c.l.x.Y.Y.Y.N.z.3.$.$.$.$.",
"pXyXyXyXyXpXAXVXVXBXV.4.n.P.Y.Y.~.~.~.~.].gXzXbXbXSXCXCXCXCX^.^.!.R.E.W.].gXgX8X5X5X5XP.>XCXCXvXuXuXR.R.T.Q.Y.Y.Y.I.n.n.4.3.2.2.",
"pXiXyXyXiXBXAXAXSXVXU.m.M.Y.Y.Y.~.6X6X~.^.fXbXbXbXCXAXAXAXAX^.^.!.!.!.W.].zXzXdX5X5X5XY.5XSXDXSXCXjXB.l.c.x.P.P.Y.M.3.z.4.3.3.t.",
"pXpXiXpXpXVXSXSXSXCXY.M.M.Y.Y.Y.~.~.5X6X^.fXzXbXFXCXSXSXAXCX^.^.!.!.!.W.].zXgXdX5X5X5XY.9XFXFXFXDXuXT.T.T.I.Y.Y.Y.Y.M.P.M.z.t.n."
};
